<svg id="Слой_1" data-name="Слой 1" xmlns="http://www.w3.org/2000/svg" viewBox="0 0 460.8 460.8"><defs><style>.cls-1{fill:#fff;}</style></defs><title>down-arrow</title><path class="cls-1" d="M486.6,256.4c0-127-103.19-230.6-230.6-230.6S25.8,129,25.8,256.4,129,486.6,256,486.6,486.6,383.4,486.6,256.4Zm-428.65,0C57.95,147.25,146.85,58.34,256,58.34S454.05,147.25,454.05,256.4,365.15,454.45,256,454.45,57.95,365.54,57.95,256.4Z" transform="translate(-25.8 -25.8)"/><path class="cls-1" d="M371.1,234.57a15.9,15.9,0,0,0,4.76-11.51,16.57,16.57,0,0,0-4.76-11.51,16.29,16.29,0,0,0-23,0l-93.27,93.27-93.27-93.27a16.28,16.28,0,1,0-23,23L243.3,339.35a16.29,16.29,0,0,0,23,0Z" transform="translate(-25.8 -25.8)"/></svg>