<?xml version="1.0" encoding="utf-8"?>
<!-- Generator: Adobe Illustrator 19.2.1, SVG Export Plug-In . SVG Version: 6.00 Build 0)  -->
<svg version="1.1" id="Слой_1" xmlns="http://www.w3.org/2000/svg" xmlns:xlink="http://www.w3.org/1999/xlink" x="0px" y="0px"
	 viewBox="0 0 512 512" style="enable-background:new 0 0 512 512;" xml:space="preserve">
<style type="text/css">
	.st0{fill:#2ECC71;}
</style>
<g>
	<path class="st0" d="M402.9,209.4V90.9c11.6-1.3,20.6-11.1,20.6-23c0-12.8-10.4-23.2-23.2-23.2H297.2c-12.8,0-23.2,10.4-23.2,23.2
		c0,11.9,9,21.8,20.6,23v118.5c-23.4,9.1-44.2,24-60.4,43.3c-2.7,3.3-2.3,8.1,1,10.9c1.4,1.2,3.2,1.8,5,1.8c2.2,0,4.4-0.9,5.9-2.8
		c15.6-18.6,36-32.7,58.8-40.6c3.1-1.1,5.2-4,5.2-7.3V91.1h43.8c4.3,0,7.7-3.5,7.7-7.7c0-4.3-3.5-7.7-7.7-7.7h-56.7
		c-4.3,0-7.7-3.5-7.7-7.7s3.5-7.7,7.7-7.7h103.1c4.3,0,7.7,3.5,7.7,7.7s-3.5,7.7-7.7,7.7h-15.5c-4.3,0-7.7,3.5-7.7,7.7
		c0,4.3,3.5,7.7,7.7,7.7h2.6v123.7c0,3.3,2.1,6.2,5.2,7.3c53.9,18.7,90.1,69.6,90.1,126.6c0,73.9-60.1,134-134,134
		c-17.4,0-34.4-3.3-50.4-9.8c-4-1.6-8.5,0.3-10.1,4.3c-1.6,4,0.3,8.5,4.3,10.1c17.9,7.3,36.8,10.9,56.2,10.9
		c82.4,0,149.4-67,149.4-149.4C498.2,286.9,460.1,231.6,402.9,209.4L402.9,209.4z"/>
	<circle class="st0" cx="406.4" cy="375.9" r="7.7"/>
	<circle class="st0" cx="375.5" cy="406.9" r="7.7"/>
	<path class="st0" d="M305.1,442.1c-3.9-1.8-8.5-0.1-10.3,3.7c-1.8,3.9-0.1,8.5,3.7,10.3c15.8,7.4,32.7,11.1,50.2,11.1
		c65.4,0,118.5-53.2,118.5-118.5c0-20.8-5.5-41.3-15.9-59.3c-1.6-2.7-4.6-4.2-7.8-3.8l-2.8,0.4c-0.4,0-0.7,0.1-1,0.2
		c-11.7,3.3-18,8.4-23.1,12.4c-5.6,4.5-9.3,7.5-20,7.5c-9.1,0-13.3-3.5-19-8.4c-6.3-5.4-14.2-12.2-29-12.2c-14.9,0-22.7,6.7-29,12.2
		c-5.7,4.9-9.8,8.4-19,8.4c-10.7,0-14.4-3-20-7.5c-5.1-4.1-11.4-9.1-23-12.4c-0.3-0.1-0.7-0.2-1-0.2l-2.8-0.4
		c-3.1-0.4-6.2,1.1-7.7,3.8c-0.1,0.1-0.1,0.2-0.2,0.4c-2.1,3.7-0.9,8.4,2.8,10.6c1.6,0.9,3.4,1.2,5.1,0.9l0.1,0
		c8.3,2.5,12.6,5.9,17.1,9.5c6.7,5.4,13.6,10.9,29.7,10.9c14.9,0,22.7-6.7,29-12.2c5.7-4.9,9.8-8.4,19-8.4c9.1,0,13.3,3.5,19,8.4
		c6.3,5.4,14.2,12.2,29,12.2c16.1,0,23-5.5,29.7-10.9c4-3.2,7.8-6.2,14.3-8.6c7.3,14.3,11.1,30.3,11.1,46.5
		c0,56.8-46.2,103.1-103.1,103.1C333.5,451.8,318.8,448.6,305.1,442.1L305.1,442.1z"/>
	<path class="st0" d="M200.4,213.5V60c11.6-1.3,20.6-11.1,20.6-23c0-12.8-10.4-23.2-23.2-23.2H94.7c-12.8,0-23.2,10.4-23.2,23.2
		c0,11.9,9,21.8,20.6,23v123.9c0,4.3,3.5,7.7,7.7,7.7c4.3,0,7.7-3.5,7.7-7.7V60.2h43.8c4.3,0,7.7-3.5,7.7-7.7s-3.5-7.7-7.7-7.7H94.7
		c-4.3,0-7.7-3.5-7.7-7.7s3.5-7.7,7.7-7.7h103.1c4.3,0,7.7,3.5,7.7,7.7s-3.5,7.7-7.7,7.7h-15.5c-4.3,0-7.7,3.5-7.7,7.7
		s3.5,7.7,7.7,7.7h2.6v154.6c0,0.9,0.1,1.7,0.4,2.5l75.1,217.2c4.5,13.1,3.5,25.3-2.9,34.3c-6.4,9-17.6,13.9-31.4,13.9H66.4
		c-13.9,0-25-4.9-31.4-13.9c-6.4-9-7.4-21.1-2.9-34.3l75.1-217.2c1.4-4-0.7-8.4-4.8-9.8c-4-1.4-8.4,0.7-9.8,4.8L17.4,429.5
		c-6.2,18-4.5,35.1,4.9,48.3c9.4,13.2,25,20.4,44,20.4h159.8c19,0,34.7-7.2,44-20.4c9.4-13.2,11.1-30.3,4.9-48.3L200.4,213.5
		L200.4,213.5z"/>
	<path class="st0" d="M80.4,373.3c-2-1.5-4.6-2-6.9-1.3c-2.4,0.7-4.3,2.5-5.1,4.9l-21.7,62.8c-2.9,8.3-2.6,15.5,0.9,20.2
		c3.4,4.8,10.1,7.4,18.8,7.4h159.8c8.7,0,15.4-2.6,18.8-7.4c3.4-4.8,3.7-12,0.9-20.2l-21.7-62.8c-0.8-2.4-2.7-4.2-5.1-4.9
		c-2.4-0.7-5-0.2-6.9,1.3c-4.2,3.3-8.2,5.8-17.9,5.8c-9.1,0-13.3-3.5-19-8.4c-6.3-5.4-14.2-12.2-29-12.2c-14.9,0-22.7,6.7-29,12.2
		c-5.7,4.9-9.8,8.4-19,8.4C88.6,379,84.6,376.5,80.4,373.3L80.4,373.3z M127.3,382.3c5.7-4.9,9.8-8.4,19-8.4c9.1,0,13.3,3.5,19,8.4
		c6.3,5.4,14.2,12.2,29,12.2c8.1,0,13.9-1.4,18.4-3.5l18.6,53.7c1.1,3.2,1.2,5.2,1,6.1c-0.8,0.4-2.8,1-6.1,1H66.4
		c-3.4,0-5.3-0.6-6.1-1c-0.1-0.9,0-3,1-6.1L79.8,391c4.5,2,10.4,3.5,18.4,3.5C113.1,394.5,121,387.7,127.3,382.3L127.3,382.3z"/>
</g>
</svg>
