<svg id="wikipedia" xmlns="http://www.w3.org/2000/svg" viewBox="0 0 960 960"><defs><style>.cls-1{fill:#e2e2e2;}</style></defs><title>wikipedia</title><circle id="back" class="cls-1" cx="480" cy="480" r="480"/><path id="wiki" d="M835.12,347.89a10.5,10.5,0,0,1-2.16,6.37c-1.48,1.88-3,2.84-4.77,2.84-14.15,1.36-25.8,5.91-34.78,13.7s-18.3,22.56-27.91,44.39L618.85,745.64c-1,3.07-3.64,4.6-8.07,4.6a9,9,0,0,1-8.07-4.6l-82.24-172-94.58,172a9,9,0,0,1-8.07,4.6q-6.31,0-8.36-4.6L265.38,415.19q-13.47-30.78-28.48-43C227,364.09,213,359,195.25,357.1a5.56,5.56,0,0,1-4.32-2.44,8.33,8.33,0,0,1-2-5.57c0-5.4,1.53-8.07,4.6-8.07q19.27,0,40.3,1.71,19.52,1.79,36.77,1.76,17.56,0,41.43-1.76Q337,341,356.27,341c3.07,0,4.6,2.67,4.6,8.07s-1,8-2.84,8c-12.85,1-23,4.26-30.35,9.78s-11.08,12.85-11.08,21.88q0,6.91,4.6,17.22l119.07,268.9,67.58-127.66-63-132q-17-35.3-27.91-45.58c-7.28-6.76-18.3-11-33.08-12.5-1.36,0-2.61-.8-3.86-2.44a8.79,8.79,0,0,1-1.88-5.57c0-5.4,1.31-8.07,4-8.07a337.24,337.24,0,0,1,35.35,1.71,289.27,289.27,0,0,0,33.08,1.76q17.22,0,36.49-1.76Q507,341,526.21,341c3.07,0,4.6,2.67,4.6,8.07s-0.91,8-2.84,8q-38.54,2.64-38.54,21.88,0,8.61,8.92,26.71L540,490.27l41.43-77.36q8.61-16.37,8.64-27.62,0-26.43-38.54-28.19c-2.33,0-3.47-2.67-3.47-8a9.66,9.66,0,0,1,1.71-5.46c1.19-1.76,2.33-2.61,3.47-2.61q13.81,0,33.93,1.71c12.85,1.19,23.42,1.76,31.66,1.76,5.91,0,14.66-.51,26.15-1.48,14.55-1.31,26.77-2,36.55-2,2.27,0,3.41,2.27,3.41,6.88q0,9.21-6.31,9.21-22.42,2.3-36.09,12.39t-34,45.7L553.26,517.32l74.8,152.38L738.5,412.91c3.81-9.38,5.74-18,5.74-25.86q0-28.22-38.54-30c-2.33,0-3.47-2.67-3.47-8s1.71-8.07,5.17-8.07q14.07,0,33.36,1.71c11.88,1.19,21.88,1.76,29.9,1.76A277,277,0,0,0,800,342.72c11.54-1.14,21.88-1.71,31.09-1.71C833.76,341,835.12,343.29,835.12,347.89Z" transform="translate(-32 -32)"/></svg>