<svg id="wikipedia" xmlns="http://www.w3.org/2000/svg" viewBox="0 0 960 960"><defs><style>.cls-1{fill:#e2e2e2;}</style></defs><title>wikipedia</title><circle id="back" class="cls-1" cx="480" cy="480" r="480"/><path id="wiki" d="M878.23,320.61a11.93,11.93,0,0,1-2.45,7.23c-1.68,2.13-3.42,3.23-5.43,3.23-16.08,1.55-29.33,6.72-39.53,15.57S810,372.29,799.1,397.09L632.44,772.66c-1.1,3.49-4.13,5.23-9.17,5.23a10.27,10.27,0,0,1-9.17-5.23L520.62,577.19,413.13,772.66a10.27,10.27,0,0,1-9.17,5.23q-7.17,0-9.5-5.23L230.71,397.09q-15.31-35-32.36-48.84c-11.3-9.24-27.13-15-47.35-17.18a6.32,6.32,0,0,1-4.91-2.78,9.47,9.47,0,0,1-2.33-6.33c0-6.14,1.74-9.17,5.23-9.17q21.9,0,45.8,1.94,22.19,2,41.79,2,20,0,47.09-2,28.39-1.94,50.32-1.94c3.49,0,5.23,3,5.23,9.17s-1.1,9.11-3.23,9.11c-14.6,1.1-26.1,4.84-34.49,11.11s-12.6,14.6-12.6,24.87q0,7.85,5.23,19.57L429.47,692.23l76.81-145.09L434.71,397.09Q415.42,357,403,345.28c-8.27-7.69-20.8-12.47-37.6-14.21-1.55,0-3-.9-4.39-2.78a10,10,0,0,1-2.13-6.33c0-6.14,1.49-9.17,4.59-9.17a383.29,383.29,0,0,1,40.18,1.94,328.76,328.76,0,0,0,37.6,2q19.57,0,41.47-2,22.58-1.94,44.44-1.94c3.49,0,5.23,3,5.23,9.17s-1,9.11-3.23,9.11q-43.8,3-43.8,24.87,0,9.79,10.14,30.36l47.35,96.12,47.09-87.92q9.79-18.6,9.82-31.39,0-30-43.8-32c-2.65,0-3.94-3-3.94-9.11a11,11,0,0,1,1.94-6.2c1.36-2,2.65-3,3.94-3q15.7,0,38.56,1.94c14.6,1.36,26.61,2,36,2,6.72,0,16.67-.58,29.71-1.68,16.54-1.49,30.43-2.26,41.54-2.26,2.58,0,3.88,2.58,3.88,7.82q0,10.46-7.17,10.46-25.48,2.62-41,14.08t-38.69,51.94L557.89,513.17l85,173.18L768.41,394.51c4.33-10.66,6.52-20.48,6.52-29.39q0-32.07-43.8-34c-2.65,0-3.94-3-3.94-9.11s1.94-9.17,5.88-9.17q16,0,37.92,1.94c13.5,1.36,24.87,2,34,2a314.82,314.82,0,0,0,33.33-2c13.11-1.29,24.87-1.94,35.33-1.94C876.68,312.79,878.23,315.37,878.23,320.61Z" transform="translate(-32 -32)"/></svg>