<svg id="youtube" xmlns="http://www.w3.org/2000/svg" viewBox="0 0 960 960"><defs><style>.cls-1{fill:#ca3737;}.cls-2{fill:#fff;}</style></defs><title>youtube</title><circle id="back" class="cls-1" cx="480" cy="480" r="480"/><path id="play" class="cls-2" d="M756.84,391.69c0-2.19,0-4.38-2.19-6.56v-2.19c-6.56-19.69-24.06-32.81-45.93-32.81h4.37S627.8,337,511.89,337c-113.72,0-201.2,13.13-201.2,13.13h4.37c-21.87,0-39.37,13.13-45.93,32.81v2.19c0,2.19,0,4.38-2.19,6.56-2.19,21.88-8.75,67.81-8.75,120.31s6.56,98.44,8.75,120.31c0,2.19,0,4.38,2.19,6.56v2.19c6.56,19.69,24.06,32.81,45.93,32.81h-4.37S396,687,511.89,687c113.72,0,201.2-13.13,201.2-13.13h-4.37c21.87,0,39.37-13.13,45.93-32.81v-2.19c0-2.19,0-4.38,2.19-6.56,2.19-21.87,8.75-67.81,8.75-120.31S761.21,413.56,756.84,391.69ZM586.25,522.94L483.46,597.31c-2.19,2.19-4.37,2.19-6.56,2.19s-4.37,0-6.56-2.19a12,12,0,0,1-6.56-10.94V437.62a12,12,0,0,1,6.56-10.94,13.94,13.94,0,0,1,13.12,0l102.79,74.37A16.71,16.71,0,0,1,590.62,512C592.81,516.38,590.62,520.75,586.25,522.94Z" transform="translate(-32 -32)"/></svg>