<?xml version="1.0" encoding="utf-8"?>
<!-- Generator: Adobe Illustrator 19.2.1, SVG Export Plug-In . SVG Version: 6.00 Build 0)  -->
<svg version="1.1" id="Capa_1" xmlns="http://www.w3.org/2000/svg" xmlns:xlink="http://www.w3.org/1999/xlink" x="0px" y="0px"
	 viewBox="0 0 512 512" style="enable-background:new 0 0 512 512;" xml:space="preserve">
<style type="text/css">
	.st0{fill:#5C546A;}
	.st1{fill:#F4D03F;}
	.st2{fill:#ED972F;}
	.st3{fill:#B9BBC1;}
	.st4{fill:#8B8996;}
</style>
<g>
	<g>
		<path class="st0" d="M310.3,397.2c-4.1,0-7.4-3.3-7.4-7.4c0-4.1,3.3-7.4,7.4-7.4c4.1,0,7.4-3.3,7.4-7.4c0-4.1-3.3-7.4-7.4-7.4
			h-119c-4.1,0-7.4,3.3-7.4,7.4c0,4.1,3.3,7.4,7.4,7.4s7.4,3.3,7.4,7.4c0,4.1-3.3,7.4-7.4,7.4s-7.4,3.3-7.4,7.4
			c0,4.1,3.3,7.4,7.4,7.4h119c4.1,0,7.4-3.3,7.4-7.4C317.7,400.6,314.4,397.2,310.3,397.2z"/>
	</g>
	<g>
		<path class="st1" d="M402.3,200.2c0-2.2,0.8-4.3,2.4-5.9c7-7,7-18.4,0-25.4l-88.4-88.4c5.7-9.2,13.1-28.9,0.8-57.9
			c-1-2.5-3.3-4.2-6-4.5c-2.7-0.3-5.3,0.8-6.9,3.1c-10.7,15-32.3,28.7-57.2,44.5c-58,36.8-130.1,82.7-130.1,182.8
			c0,84.3,45,120.9,58.7,130.1c3.6,2.4,7.9,3.7,12.4,3.7h128.8c7.7,0,14.8-3.9,19-10.5l14.6-23.3c12.5-20.1,9.9-46-6.2-63.3
			L265.7,202c8.1,1.1,18,2,29.7,2c28.2,0,41.3,14.5,52.9,27.3c3.9,4.4,7.6,8.5,11.6,11.5c5.9,4.6,14.4,4.2,19.8-1.1l25.1-25.1
			c2.9-2.9,2.9-7.6,0-10.5C403.1,204.5,402.3,202.4,402.3,200.2z"/>
	</g>
	<g>
		<path class="st2" d="M191.3,218.8c0-115.3,101.6-114.6,119-200.7c-2.3,0-4.6,1.1-6,3.1c-10.7,15-32.3,28.7-57.2,44.5
			c-58,36.8-130.1,82.7-130.1,182.8c0,84.3,45,120.9,58.7,130.1c3.6,2.4,7.9,3.7,12.4,3.7h85C273.1,293.8,191.3,295.4,191.3,218.8z"
			/>
	</g>
	<g>
		<path class="st3" d="M391.4,431.7L352.2,399c-1.3-1.1-3.1-1.8-4.7-1.8H154.1c-1.8,0-3.4,0.7-4.7,1.8l-39.3,32.7
			c-5.1,4.3-8,10.5-8,17.1v37.6c0,4.1,3.3,7.4,7.4,7.4h282.6c4.1,0,7.4-3.3,7.4-7.4v-37.6C399.5,442.2,396.5,435.9,391.4,431.7z"/>
	</g>
	<g>
		<g>
			<path class="st2" d="M265.7,137c-4.1,0-7.4-3.3-7.4-7.4c0-4.1,3.3-7.4,7.4-7.4c3.7,0,7.4-2,11.7-4.4c8.5-4.6,20.1-11.1,36.4-2.1
				c3.6,2,4.9,6.5,3,10.1c-2,3.6-6.5,4.9-10.1,3c-9.2-5-14.3-2.1-22.2,2.1C279.1,133.6,273.1,137,265.7,137z"/>
		</g>
	</g>
	<g>
		<g>
			<path class="st2" d="M295.4,137c-4.1,0-7.4-3.3-7.4-7.4v-7.4c0-4.1,3.3-7.4,7.4-7.4c4.1,0,7.4,3.3,7.4,7.4v7.4
				C302.8,133.6,299.5,137,295.4,137z"/>
		</g>
	</g>
	<g>
		<path class="st4" d="M250.8,397.2h-96.7c-1.8,0-3.4,0.7-4.7,1.8l-39.3,32.7c-5.1,4.3-8,10.5-8,17.1v37.6c0,4.1,3.3,7.4,7.4,7.4
			h141.3V397.2z"/>
	</g>
	<g>
		<path class="st4" d="M102.1,448.8v37.6c0,4.1,3.3,7.4,7.4,7.4h282.6c4.1,0,7.4-3.3,7.4-7.4v-37.6c0-2.4-0.5-4.7-1.2-7h-295
			C102.5,444.1,102.1,446.4,102.1,448.8z"/>
	</g>
	<g>
		<path class="st0" d="M250.8,441.8H103.3c-0.7,2.2-1.2,4.6-1.2,7v37.6c0,4.1,3.3,7.4,7.4,7.4h141.3V441.8z"/>
	</g>
	<g>
		<path class="st2" d="M265.7,201.9c1.4,0.2,3,0.4,4.6,0.6c-23.5-4.6-36.2-17.5-42.8-28.2c-9.5-15.2-10.7-32.6-6.9-42
			c1.5-3.8-0.4-8.2-4.2-9.7c-3.8-1.5-8.2,0.4-9.7,4.2c-6.1,15.4-3,37.7,8.1,55.4c13.4,21.4,36.5,34.4,65.2,36.5c0.2,0,0.4,0,0.6,0
			c0.3,0,0.6-0.1,0.8-0.2L265.7,201.9z"/>
	</g>
</g>
</svg>
