<?xml version="1.0" encoding="utf-8"?>
<!-- Generator: Adobe Illustrator 19.2.1, SVG Export Plug-In . SVG Version: 6.00 Build 0)  -->
<svg version="1.1" id="Capa_1" xmlns="http://www.w3.org/2000/svg" xmlns:xlink="http://www.w3.org/1999/xlink" x="0px" y="0px"
	 viewBox="0 0 512 512" style="enable-background:new 0 0 512 512;" xml:space="preserve">
<style type="text/css">
	.st0{fill:#5C546A;}
	.st1{fill:#F4D03F;}
	.st2{fill:#ED972F;}
	.st3{fill:#B9BBC1;}
	.st4{fill:#8B8996;}
</style>
<g>
	<g>
		<path class="st0" d="M314.4,408c-4.4,0-8-3.6-8-8s3.6-8,8-8c4.4,0,8-3.6,8-8s-3.6-8-8-8h-128c-4.4,0-8,3.6-8,8s3.6,8,8,8
			c4.4,0,8,3.6,8,8s-3.6,8-8,8c-4.4,0-8,3.6-8,8s3.6,8,8,8h128c4.4,0,8-3.6,8-8S318.8,408,314.4,408z"/>
	</g>
	<g>
		<path class="st1" d="M413.4,196c0-2.4,0.9-4.6,2.6-6.3c7.5-7.5,7.5-19.8,0-27.3l-95.1-95.1c6.1-9.9,14.1-31.1,0.9-62.3
			c-1.1-2.7-3.6-4.5-6.5-4.8c-2.9-0.3-5.7,0.9-7.4,3.3c-11.5,16.1-34.7,30.9-61.5,47.9c-62.4,39.6-140,89-140,196.7
			c0,90.7,48.4,130.1,63.2,140c3.9,2.6,8.5,4,13.3,4h138.6c8.3,0,15.9-4.2,20.4-11.3l15.7-25.1c13.5-21.6,10.7-49.5-6.7-68.1
			l-84.5-89.7c8.7,1.2,19.4,2.2,32,2.2c30.3,0,44.4,15.6,56.9,29.4c4.2,4.7,8.2,9.1,12.5,12.4c6.4,5,15.5,4.5,21.3-1.2l27-27
			c3.1-3.1,3.1-8.2,0-11.3C414.3,200.6,413.4,198.4,413.4,196z"/>
	</g>
	<g>
		<path class="st2" d="M186.4,216c0-124,109.3-123.3,128-215.9c-2.5,0-5,1.2-6.5,3.3c-11.5,16.1-34.7,30.9-61.5,47.9
			c-62.4,39.6-140,89-140,196.7c0,90.7,48.4,130.1,63.2,140c3.9,2.6,8.5,4,13.3,4h91.5C274.4,296.7,186.4,298.4,186.4,216z"/>
	</g>
	<g>
		<path class="st3" d="M401.7,445.1l-42.2-35.2c-1.4-1.2-3.3-1.9-5.1-1.9h-208c-1.9,0-3.7,0.7-5.1,1.9L99,445.1
			c-5.5,4.6-8.6,11.3-8.6,18.4V504c0,4.4,3.6,8,8,8h304c4.4,0,8-3.6,8-8v-40.5C410.4,456.4,407.2,449.6,401.7,445.1z"/>
	</g>
	<g>
		<g>
			<path class="st2" d="M266.4,128c-4.4,0-8-3.6-8-8s3.6-8,8-8c4,0,8-2.2,12.6-4.7c9.1-5,21.6-11.9,39.2-2.3c3.9,2.1,5.3,7,3.2,10.9
				c-2.1,3.9-7,5.3-10.9,3.2c-9.9-5.4-15.4-2.3-23.9,2.3C280.9,124.4,274.4,128,266.4,128z"/>
		</g>
	</g>
	<g>
		<g>
			<path class="st2" d="M298.4,128c-4.4,0-8-3.6-8-8v-8c0-4.4,3.6-8,8-8s8,3.6,8,8v8C306.4,124.4,302.8,128,298.4,128z"/>
		</g>
	</g>
	<g>
		<path class="st4" d="M250.4,408h-104c-1.9,0-3.7,0.7-5.1,1.9L99,445.1c-5.5,4.6-8.6,11.3-8.6,18.4V504c0,4.4,3.6,8,8,8h152V408z"
			/>
	</g>
	<g>
		<path class="st4" d="M90.4,463.5V504c0,4.4,3.6,8,8,8h304c4.4,0,8-3.6,8-8v-40.5c0-2.6-0.5-5.1-1.3-7.5H91.7
			C90.9,458.4,90.4,460.9,90.4,463.5z"/>
	</g>
	<g>
		<path class="st0" d="M250.4,456H91.7c-0.8,2.4-1.3,4.9-1.3,7.5V504c0,4.4,3.6,8,8,8h152V456z"/>
	</g>
	<g>
		<path class="st2" d="M266.4,197.8c1.5,0.2,3.2,0.4,4.9,0.6c-25.3-5-38.9-18.8-46.1-30.3c-10.2-16.4-11.5-35.1-7.4-45.2
			c1.6-4.1-0.4-8.8-4.5-10.4c-4.1-1.6-8.8,0.4-10.4,4.5c-6.6,16.6-3.2,40.6,8.7,59.6c14.4,23,39.3,37,70.1,39.3c0.2,0,0.4,0,0.6,0
			c0.3,0,0.6-0.1,0.9-0.2L266.4,197.8z"/>
	</g>
</g>
</svg>
