<?xml version="1.0" encoding="utf-8"?>
<!-- Generator: Adobe Illustrator 19.2.1, SVG Export Plug-In . SVG Version: 6.00 Build 0)  -->
<svg version="1.1" id="Capa_1" xmlns="http://www.w3.org/2000/svg" xmlns:xlink="http://www.w3.org/1999/xlink" x="0px" y="0px"
	 viewBox="0 0 148.7 148.7" style="enable-background:new 0 0 148.7 148.7;" xml:space="preserve">
<style type="text/css">
	.st0{fill:#FFEBCA;}
	.st1{fill:#F0B43C;}
	.st2{fill:#AB4734;}
	.st3{fill:#FFC54F;}
	.st4{fill:#E6D4B6;}
	.st5{fill:#5C281E;}
	.st6{fill:#8C3E2E;}
	.st7{fill:#FFD580;}
	.st8{display:none;opacity:0.2;}
	.st9{display:inline;fill:#FFFFFF;}
	.st10{fill:#383838;}
	.st11{fill:#FFFFFF;}
	.st12{fill:#F5B83D;}
	.st13{opacity:0.2;fill:#FFFFFF;enable-background:new    ;}
</style>
<g>
	<ellipse class="st0" cx="74.4" cy="74.7" rx="57.2" ry="46.6"/>
	<path class="st1" d="M74.4,28.2c-41.7,0-62.9,6.7-62.9,6.7c44.3,8.3,62.9,38.4,62.9,38.4S93,43.2,137.2,34.9
		C137.2,34.9,116,28.2,74.4,28.2z"/>
	<path class="st2" d="M142.9,44c8.6-13,5.2-16.5,5.2-16.5c-2.8,2.9-6.5,5.4-10.6,7.4l-23.1,1.3l-40,11.5L34.2,33.1l-22.8,1.7
		c-4.1-2-8-4.4-10.8-7.4c0,0-3.4,3.6,5.2,16.5s-5.5,33.6,0,45.3c0,0,1.7-3.7,4.8-4c0,0-5.2,10.1-0.2,17c0,0,0.2-3.4,2.6-4.4
		c0,0,0.9,6.1,6.2,6.3c0,0-0.3-3.1,0.9-4c0,0,4.3,4.6,14.2-1.5s22.4-16.8,28.1-19c0,0,1.6,8.3,11.9,14.3l0,0
		c10.4-6,11.9-14.3,11.9-14.3c5.7,2.1,18.3,12.8,28.1,19c9.8,6.1,14.2,1.5,14.2,1.5c1.2,0.9,0.9,4,0.9,4c5.4-0.2,6.2-6.3,6.2-6.3
		c2.4,1.1,2.6,4.4,2.6,4.4c5-6.9-0.2-17-0.2-17c3.1,0.3,4.8,4,4.8,4C148.3,77.5,134.3,56.9,142.9,44z"/>
	<path class="st3" d="M74.4,74.6c-2.7,0-8.8,5.3-8.8,5.3c0,4.7,8.8,11.4,8.8,11.4s8.8-6.7,8.8-11.4C83.1,79.8,77.1,74.6,74.4,74.6z"
		/>
	<g>
		<g>
			<path class="st4" d="M61.9,93.6l-0.4,0.8L61,95.2c-0.2,0.3-0.4,0.5-0.5,0.7c-0.2,0.2-0.4,0.5-0.6,0.7c-0.2,0.2-0.4,0.5-0.6,0.7
				c-0.4,0.4-0.8,0.9-1.3,1.3c-0.2,0.2-0.5,0.4-0.7,0.6c-0.2,0.2-0.4,0.4-0.7,0.6c-0.5,0.4-0.9,0.8-1.4,1.2l-1.4,1.2
				c-0.3,0.2-0.6,0.5-0.9,0.7c-0.3-0.2-0.6-0.5-0.9-0.7l-1.4-1.2c-0.5-0.4-1-0.8-1.4-1.2c-0.2-0.2-0.5-0.4-0.7-0.6
				c-0.2-0.2-0.5-0.4-0.7-0.6c-0.5-0.4-0.9-0.9-1.3-1.3c-0.2-0.2-0.4-0.5-0.6-0.7c-0.2-0.2-0.4-0.5-0.6-0.7
				c-0.2-0.2-0.4-0.5-0.5-0.7l-0.5-0.8l-0.4-0.8l-0.2-0.9l0,0.9l0.2,1c0.1,0.3,0.2,0.6,0.3,0.9c0.1,0.3,0.3,0.6,0.4,0.9
				c0.1,0.3,0.3,0.6,0.5,0.8c0.2,0.3,0.3,0.6,0.5,0.8c0.4,0.5,0.8,1,1.2,1.5c0.8,1,1.7,1.9,2.7,2.8c1,0.9,1.9,1.7,3,2.5l0.5,0.4
				l0.5-0.4c1-0.8,2-1.6,3-2.5c0.9-0.9,1.8-1.8,2.7-2.8c0.4-0.5,0.8-1,1.2-1.5c0.2-0.3,0.4-0.5,0.5-0.8c0.2-0.3,0.3-0.5,0.5-0.8
				c0.1-0.3,0.3-0.6,0.4-0.9c0.1-0.3,0.2-0.6,0.3-0.9l0.2-0.9l0-0.9L61.9,93.6z"/>
			<path class="st4" d="M83.4,93.6L83,94.4l-0.5,0.8c-0.2,0.3-0.4,0.5-0.5,0.7c-0.2,0.2-0.4,0.5-0.6,0.7c-0.2,0.2-0.4,0.5-0.6,0.7
				c-0.4,0.4-0.8,0.9-1.3,1.3c-0.2,0.2-0.5,0.4-0.7,0.6c-0.2,0.2-0.4,0.4-0.7,0.6c-0.5,0.4-0.9,0.8-1.4,1.2l-1.4,1.2
				c-0.3,0.2-0.6,0.5-0.9,0.7c-0.3-0.2-0.6-0.5-0.9-0.7l-1.4-1.2c-0.5-0.4-1-0.8-1.4-1.2c-0.2-0.2-0.5-0.4-0.7-0.6
				c-0.2-0.2-0.5-0.4-0.7-0.6c-0.4-0.4-0.9-0.9-1.3-1.3c-0.2-0.2-0.4-0.5-0.6-0.7c-0.2-0.2-0.4-0.5-0.6-0.7
				c-0.2-0.2-0.4-0.5-0.5-0.7l-0.5-0.8l-0.4-0.8l-0.2-0.9l0,0.9l0.2,1c0.1,0.3,0.2,0.6,0.3,0.9c0.1,0.3,0.3,0.6,0.4,0.9
				c0.1,0.3,0.3,0.6,0.5,0.8c0.2,0.3,0.3,0.6,0.5,0.8c0.4,0.5,0.8,1,1.2,1.5c0.8,1,1.7,1.9,2.7,2.8c1,0.9,1.9,1.7,3,2.5l0.5,0.4
				l0.5-0.4c1-0.8,2-1.6,3-2.5c0.9-0.9,1.8-1.8,2.7-2.8c0.4-0.5,0.8-1,1.2-1.5c0.2-0.3,0.4-0.5,0.5-0.8c0.2-0.3,0.3-0.5,0.5-0.8
				c0.1-0.3,0.3-0.6,0.4-0.9c0.1-0.3,0.2-0.6,0.3-0.9l0.2-0.9l0-0.9L83.4,93.6z"/>
			<path class="st4" d="M105.1,92.7l-0.2,0.9l-0.4,0.8l-0.5,0.8c-0.2,0.3-0.4,0.5-0.5,0.7c-0.2,0.2-0.4,0.5-0.6,0.7
				c-0.2,0.2-0.4,0.5-0.6,0.7c-0.4,0.4-0.8,0.9-1.3,1.3c-0.2,0.2-0.5,0.4-0.7,0.6c-0.2,0.2-0.4,0.4-0.7,0.6
				c-0.5,0.4-0.9,0.8-1.4,1.2l-1.4,1.2c-0.3,0.2-0.6,0.5-0.9,0.7c-0.3-0.2-0.6-0.5-0.9-0.7l-1.4-1.2c-0.5-0.4-1-0.8-1.4-1.2
				c-0.2-0.2-0.5-0.4-0.7-0.6c-0.2-0.2-0.5-0.4-0.7-0.6c-0.4-0.4-0.9-0.9-1.3-1.3c-0.2-0.2-0.4-0.5-0.6-0.7
				c-0.2-0.2-0.4-0.5-0.6-0.7c-0.2-0.2-0.4-0.5-0.5-0.7l-0.5-0.8l-0.4-0.8l-0.2-0.9l0,0.9l0.2,1c0.1,0.3,0.2,0.6,0.3,0.9
				c0.1,0.3,0.3,0.6,0.4,0.9c0.1,0.3,0.3,0.6,0.5,0.8c0.2,0.3,0.3,0.6,0.5,0.8c0.4,0.5,0.8,1,1.2,1.5c0.8,1,1.7,1.9,2.7,2.8
				c1,0.9,1.9,1.7,3,2.5l0.5,0.4l0.5-0.4c1-0.8,2-1.6,3-2.5c0.9-0.9,1.8-1.8,2.7-2.8c0.4-0.5,0.8-1,1.2-1.5c0.2-0.3,0.4-0.5,0.5-0.8
				c0.2-0.3,0.3-0.5,0.5-0.8c0.1-0.3,0.3-0.6,0.4-0.9c0.1-0.3,0.2-0.6,0.3-0.9l0.2-0.9L105.1,92.7z"/>
		</g>
		<g>
			<path class="st4" d="M70.4,105.9l-0.3,0.7l-0.4,0.7c-0.1,0.2-0.3,0.4-0.4,0.6c-0.1,0.2-0.3,0.4-0.4,0.6c-0.2,0.2-0.3,0.4-0.5,0.6
				c-0.3,0.4-0.6,0.8-1,1.2c-0.2,0.2-0.3,0.4-0.5,0.6c-0.2,0.2-0.3,0.4-0.5,0.6c-0.3,0.4-0.7,0.7-1.1,1.1l-1.1,1
				c-0.2,0.2-0.5,0.4-0.7,0.6c-0.2-0.2-0.5-0.4-0.7-0.6l-1.1-1c-0.4-0.3-0.7-0.7-1.1-1.1c-0.2-0.2-0.3-0.4-0.5-0.5
				c-0.2-0.2-0.3-0.4-0.5-0.6c-0.3-0.4-0.7-0.8-1-1.2c-0.2-0.2-0.3-0.4-0.5-0.6c-0.2-0.2-0.3-0.4-0.4-0.6c-0.1-0.2-0.3-0.4-0.4-0.6
				l-0.4-0.7l-0.3-0.7l-0.2-0.8l0,0.8l0.1,0.8c0.1,0.3,0.2,0.5,0.2,0.8c0.1,0.3,0.2,0.5,0.3,0.8c0.1,0.3,0.2,0.5,0.4,0.7
				c0.1,0.2,0.3,0.5,0.4,0.7c0.3,0.5,0.6,0.9,0.9,1.3c0.6,0.9,1.3,1.7,2,2.4c0.7,0.8,1.5,1.5,2.2,2.2l0.4,0.4l0.4-0.4
				c0.8-0.7,1.5-1.4,2.2-2.2c0.7-0.8,1.4-1.6,2-2.4c0.3-0.4,0.6-0.9,0.9-1.3c0.1-0.2,0.3-0.5,0.4-0.7c0.1-0.2,0.3-0.5,0.4-0.7
				c0.1-0.3,0.2-0.5,0.3-0.8c0.1-0.3,0.2-0.5,0.2-0.8l0.1-0.8l0-0.8L70.4,105.9z"/>
			<path class="st4" d="M91.8,105.9l-0.3,0.7l-0.4,0.7c-0.1,0.2-0.3,0.4-0.4,0.6c-0.1,0.2-0.3,0.4-0.4,0.6c-0.2,0.2-0.3,0.4-0.5,0.6
				c-0.3,0.4-0.6,0.8-1,1.2c-0.2,0.2-0.3,0.4-0.5,0.6c-0.2,0.2-0.3,0.4-0.5,0.6c-0.3,0.4-0.7,0.7-1.1,1.1l-1.1,1
				c-0.2,0.2-0.5,0.4-0.7,0.6c-0.2-0.2-0.5-0.4-0.7-0.6l-1.1-1c-0.4-0.3-0.7-0.7-1.1-1.1c-0.2-0.2-0.3-0.4-0.5-0.5
				c-0.2-0.2-0.3-0.4-0.5-0.6c-0.3-0.4-0.7-0.8-1-1.2c-0.2-0.2-0.3-0.4-0.5-0.6c-0.2-0.2-0.3-0.4-0.4-0.6c-0.1-0.2-0.3-0.4-0.4-0.6
				l-0.4-0.7l-0.3-0.7l-0.2-0.8l0,0.8l0.1,0.8c0.1,0.3,0.2,0.5,0.2,0.8c0.1,0.3,0.2,0.5,0.3,0.8c0.1,0.3,0.2,0.5,0.4,0.7
				s0.3,0.5,0.4,0.7c0.3,0.5,0.6,0.9,0.9,1.3c0.6,0.9,1.3,1.7,2,2.4c0.7,0.8,1.5,1.5,2.2,2.2l0.4,0.4l0.4-0.4
				c0.8-0.7,1.5-1.4,2.2-2.2c0.7-0.8,1.4-1.6,2-2.4c0.3-0.4,0.6-0.9,0.9-1.3c0.1-0.2,0.3-0.5,0.4-0.7c0.1-0.2,0.3-0.5,0.4-0.7
				c0.1-0.3,0.2-0.5,0.3-0.8c0.1-0.3,0.2-0.5,0.2-0.8l0.1-0.8l0-0.8L91.8,105.9z"/>
		</g>
	</g>
	<g>
		<g>
			<ellipse class="st5" cx="38.4" cy="61.7" rx="23.3" ry="23.5"/>
			<ellipse class="st6" cx="38.4" cy="61.7" rx="20.6" ry="20.8"/>
			<ellipse class="st7" cx="38.4" cy="61.7" rx="15.2" ry="15.3"/>
			<g class="st8">
				<path class="st9" d="M40,80.3c0,0.9-0.7,1.7-1.6,1.7l0,0c-0.9,0-1.6-0.7-1.6-1.7V43.1c0-0.9,0.7-1.7,1.6-1.7l0,0
					c0.9,0,1.6,0.7,1.6,1.7V80.3z"/>
				<path class="st9" d="M56.8,60.1c0.9,0,1.6,0.7,1.6,1.7l0,0c0,0.9-0.7,1.7-1.6,1.7H20c-0.9,0-1.6-0.7-1.6-1.7l0,0
					c0-0.9,0.7-1.7,1.6-1.7H56.8z"/>
				<path class="st9" d="M52.6,73.7c0.6,0.6,0.6,1.7,0,2.3l0,0c-0.6,0.6-1.7,0.6-2.3,0L24.2,49.7c-0.6-0.6-0.6-1.7,0-2.3l0,0
					c0.6-0.6,1.7-0.6,2.3,0L52.6,73.7z"/>
				<path class="st9" d="M50.3,47.4c0.6-0.6,1.7-0.6,2.3,0l0,0c0.6,0.6,0.6,1.7,0,2.3L26.5,76c-0.6,0.6-1.7,0.6-2.3,0l0,0
					c-0.6-0.6-0.6-1.7,0-2.3L50.3,47.4z"/>
			</g>
			<ellipse class="st10" cx="38.4" cy="61.7" rx="6.8" ry="6.9"/>
			<ellipse class="st11" cx="32.3" cy="55.8" rx="4.3" ry="4.3"/>
		</g>
		<g>
			<ellipse class="st5" cx="110.3" cy="61.7" rx="23.3" ry="23.5"/>
			<ellipse class="st6" cx="110.3" cy="61.7" rx="20.6" ry="20.8"/>
			<ellipse class="st7" cx="110.3" cy="61.7" rx="15.2" ry="15.3"/>
			<g class="st8">
				<path class="st9" d="M111.9,80.3c0,0.9-0.7,1.7-1.6,1.7l0,0c-0.9,0-1.6-0.7-1.6-1.7V43.1c0-0.9,0.7-1.7,1.6-1.7l0,0
					c0.9,0,1.6,0.7,1.6,1.7V80.3z"/>
				<path class="st9" d="M128.7,60.1c0.9,0,1.6,0.7,1.6,1.7l0,0c0,0.9-0.7,1.7-1.6,1.7H91.9c-0.9,0-1.6-0.7-1.6-1.7l0,0
					c0-0.9,0.7-1.7,1.6-1.7H128.7z"/>
				<path class="st9" d="M124.5,73.7c0.6,0.6,0.6,1.7,0,2.3l0,0c-0.6,0.6-1.7,0.6-2.3,0L96.1,49.7c-0.6-0.6-0.6-1.7,0-2.3l0,0
					c0.6-0.6,1.7-0.6,2.3,0L124.5,73.7z"/>
				<path class="st9" d="M122.2,47.4c0.6-0.6,1.7-0.6,2.3,0l0,0c0.6,0.6,0.6,1.7,0,2.3L98.4,76c-0.6,0.6-1.7,0.6-2.3,0l0,0
					c-0.6-0.6-0.6-1.7,0-2.3L122.2,47.4z"/>
			</g>
			<ellipse class="st10" cx="110.3" cy="61.7" rx="6.8" ry="6.9"/>
			<ellipse class="st11" cx="104.2" cy="55.8" rx="4.3" ry="4.3"/>
		</g>
	</g>
	<path class="st12" d="M74.4,28.2c-41.7,0-62.9,6.7-62.9,6.7c44.3,8.3,62.9,34,62.9,34s18.6-25.7,62.9-34
		C137.2,34.9,116,28.2,74.4,28.2z"/>
	<path class="st13" d="M74.4,28.1c-1,0-1.9,0-2.9,0.1c-38.1,0.3-58.3,6.2-59.9,6.6l-0.1,0c-4.1-2-8-4.4-10.8-7.4
		c0,0-3.4,3.6,5.2,16.5s-5.5,33.6,0,45.3c0,0,1.7-3.7,4.8-4c0,0-5.2,10.1-0.2,17c0,0,0.2-3.4,2.6-4.4c0,0,0.9,6.1,6.2,6.3
		c0,0-0.3-3.1,0.9-4c0,0,2.3,2.4,7.3,1.4c10.3,12,27.5,19.9,46.8,19.9V28.1z"/>
</g>
</svg>
