<?xml version="1.0" encoding="iso-8859-1"?>
<!-- Generator: Adobe Illustrator 19.0.0, SVG Export Plug-In . SVG Version: 6.00 Build 0)  -->
<svg version="1.1" id="Capa_1" xmlns="http://www.w3.org/2000/svg" xmlns:xlink="http://www.w3.org/1999/xlink" x="0px" y="0px"
	 viewBox="0 0 480 480" style="enable-background:new 0 0 480 480;" xml:space="preserve">
<g>
	<path style="fill:#F2D057;" d="M7.273,345.455h25.454V233.591c0-2.485,2.015-4.5,4.5-4.5h23.727c2.485,0,4.5,2.015,4.5,4.5v111.864
		h21.818V233.591c0-2.485,2.015-4.5,4.5-4.5H115.5c2.485,0,4.5,2.015,4.5,4.5v64.591v47.273h21.818v-47.273v-64.591
		c0-2.485,2.015-4.5,4.5-4.5h23.727c2.485,0,4.5,2.015,4.5,4.5v111.864h21.818V233.591c0-2.485,2.015-4.5,4.5-4.5h23.727
		c2.485,0,4.5,2.015,4.5,4.5v64.591v47.273h21.818v-47.273v-64.591c0-2.485,2.015-4.5,4.5-4.5h23.727c2.485,0,4.5,2.015,4.5,4.5
		v111.864h21.818V233.591c0-2.485,2.015-4.5,4.5-4.5h23.727c2.485,0,4.5,2.015,4.5,4.5v64.591v47.273H360v-47.273v-64.591
		c0-2.485,2.015-4.5,4.5-4.5h23.727c2.485,0,4.5,2.015,4.5,4.5v111.864h21.818V233.591c0-2.485,2.015-4.5,4.5-4.5h23.727
		c2.485,0,4.5,2.015,4.5,4.5v111.864h25.455V210.909H7.273V345.455z"/>
	<path style="fill:#F2D057;" d="M39.947,185.455h400.107L240,127.863L39.947,185.455z M254.545,156.364
		c0,8.033-6.512,14.545-14.545,14.545c-8.033,0-14.546-6.512-14.546-14.545c0-8.033,6.512-14.545,14.546-14.545
		C248.033,141.818,254.545,148.33,254.545,156.364z"/>
	<path style="fill:#D6805C;" d="M65.454,352.727v-7.273V233.591c0-2.485-2.015-4.5-4.5-4.5H37.227c-2.485,0-4.5,2.015-4.5,4.5
		v111.864v7.273H65.454z"/>
	<path style="fill:#D6805C;" d="M98.182,352.727v-54.545H120v-64.591c0-2.485-2.015-4.5-4.5-4.5H91.773c-2.485,0-4.5,2.015-4.5,4.5
		v111.864v7.273H98.182z"/>
	<path style="fill:#D6805C;" d="M163.636,352.727h10.909v-7.273V233.591c0-2.485-2.015-4.5-4.5-4.5h-23.727
		c-2.485,0-4.5,2.015-4.5,4.5v64.591h21.818V352.727z"/>
	<path style="fill:#D6805C;" d="M207.273,352.727v-54.545h21.818v-64.591c0-2.485-2.015-4.5-4.5-4.5h-23.727
		c-2.485,0-4.5,2.015-4.5,4.5v111.864v7.273H207.273z"/>
	<path style="fill:#D6805C;" d="M272.727,352.727h10.909v-7.273V233.591c0-2.485-2.015-4.5-4.5-4.5h-23.727
		c-2.485,0-4.5,2.015-4.5,4.5v64.591h21.818V352.727z"/>
	<path style="fill:#D6805C;" d="M316.364,352.727v-54.545h21.818v-64.591c0-2.485-2.015-4.5-4.5-4.5h-23.727
		c-2.485,0-4.5,2.015-4.5,4.5v111.864v7.273H316.364z"/>
	<path style="fill:#D6805C;" d="M381.818,352.727h10.909v-7.273V233.591c0-2.485-2.015-4.5-4.5-4.5H364.5
		c-2.485,0-4.5,2.015-4.5,4.5v64.591h21.818V352.727z"/>
	<path style="fill:#D6805C;" d="M447.273,352.727v-7.273V233.591c0-2.485-2.015-4.5-4.5-4.5h-23.727c-2.485,0-4.5,2.015-4.5,4.5
		v111.864v7.273H447.273z"/>
	<path style="fill:#E9A868;" d="M240,112.727L0,181.818V200h7.273h465.454H480v-18.182L240,112.727z M39.947,185.455L240,127.863
		l200.053,57.591H39.947z"/>
	<rect x="32.727" y="352.727" style="fill:#BD644D;" width="32.727" height="14.545"/>
	<polygon style="fill:#E9A868;" points="32.727,345.455 7.273,345.455 7.273,367.273 32.727,367.273 32.727,352.727 	"/>
	<polygon style="fill:#E9A868;" points="447.273,352.727 447.273,367.273 472.727,367.273 472.727,345.455 447.273,345.455 	"/>
	<polygon style="fill:#E9A868;" points="87.273,345.455 65.454,345.455 65.454,352.727 65.454,367.273 87.273,367.273 
		87.273,352.727 	"/>
	<polygon style="fill:#E9A868;" points="141.818,345.455 120,345.455 120,352.727 120,367.273 141.818,367.273 141.818,352.727 	"/>
	<polygon style="fill:#D6805C;" points="7.273,200 0,200 7.273,210.909 472.727,210.909 480,200 472.727,200 	"/>
	<polygon style="fill:#E9A868;" points="196.364,345.455 174.546,345.455 174.546,352.727 174.546,367.273 196.364,367.273 
		196.364,352.727 	"/>
	<polygon style="fill:#E9A868;" points="250.909,345.455 229.091,345.455 229.091,352.727 229.091,367.273 250.909,367.273 
		250.909,352.727 	"/>
	<polygon style="fill:#E9A868;" points="305.455,345.455 283.636,345.455 283.636,352.727 283.636,367.273 305.455,367.273 
		305.455,352.727 	"/>
	<polygon style="fill:#E9A868;" points="360,345.455 338.182,345.455 338.182,352.727 338.182,367.273 360,367.273 360,352.727 	"/>
	<polygon style="fill:#E9A868;" points="414.545,345.455 392.727,345.455 392.727,352.727 392.727,367.273 414.545,367.273 
		414.545,352.727 	"/>
	<polygon style="fill:#BD644D;" points="98.182,352.727 87.273,352.727 87.273,367.273 120,367.273 120,352.727 	"/>
	<polygon style="fill:#BD644D;" points="163.636,352.727 141.818,352.727 141.818,367.273 174.546,367.273 174.546,352.727 	"/>
	<polygon style="fill:#BD644D;" points="207.273,352.727 196.364,352.727 196.364,367.273 229.091,367.273 229.091,352.727 	"/>
	<polygon style="fill:#BD644D;" points="272.727,352.727 250.909,352.727 250.909,367.273 283.636,367.273 283.636,352.727 	"/>
	<polygon style="fill:#BD644D;" points="316.364,352.727 305.455,352.727 305.455,367.273 338.182,367.273 338.182,352.727 	"/>
	<polygon style="fill:#BD644D;" points="381.818,352.727 360,352.727 360,367.273 392.727,367.273 392.727,352.727 	"/>
	<rect x="414.545" y="352.727" style="fill:#BD644D;" width="32.727" height="14.545"/>
	<polygon style="fill:#944851;" points="207.273,352.727 229.091,352.727 229.091,345.455 229.091,298.182 207.273,298.182 	"/>
	<polygon style="fill:#944851;" points="272.727,352.727 272.727,298.182 250.909,298.182 250.909,345.455 250.909,352.727 	"/>
	<polygon style="fill:#944851;" points="316.364,352.727 338.182,352.727 338.182,345.455 338.182,298.182 316.364,298.182 	"/>
	<polygon style="fill:#944851;" points="381.818,352.727 381.818,298.182 360,298.182 360,345.455 360,352.727 	"/>
	<polygon style="fill:#944851;" points="98.182,352.727 120,352.727 120,345.455 120,298.182 98.182,298.182 	"/>
	<polygon style="fill:#944851;" points="163.636,352.727 163.636,298.182 141.818,298.182 141.818,345.455 141.818,352.727 	"/>
	<circle style="fill:#E9A868;" cx="240" cy="156.364" r="14.546"/>
</g>
<g>
</g>
<g>
</g>
<g>
</g>
<g>
</g>
<g>
</g>
<g>
</g>
<g>
</g>
<g>
</g>
<g>
</g>
<g>
</g>
<g>
</g>
<g>
</g>
<g>
</g>
<g>
</g>
<g>
</g>
</svg>
